HIERARCHY
ROOT Hips
{
	OFFSET 0.000000 0.000000 0.000000
	CHANNELS 6 Xposition Yposition Zposition Zrotation Yrotation Xrotation 
	JOINT LHipJoint
	{
		OFFSET 0.000000 0.000000 0.000000
		CHANNELS 3 Zrotation Yrotation Xrotation
		JOINT LeftUpLeg
		{
			OFFSET 1.363060 -1.794630 0.839290
			CHANNELS 3 Zrotation Yrotation Xrotation
			JOINT LeftLeg
			{
				OFFSET 2.448110 -6.726130 0.000000
				CHANNELS 3 Zrotation Yrotation Xrotation
				JOINT LeftFoot
				{
					OFFSET 2.562200 -7.039590 0.000000
					CHANNELS 3 Zrotation Yrotation Xrotation
					JOINT LeftToeBase
					{
						OFFSET 0.157640 -0.433110 2.322550
						CHANNELS 3 Zrotation Yrotation Xrotation
						End Site
						{
							OFFSET 0.000000 0.000000 0.000000
						}
					}
				}
			}
		}
	}
	JOINT RHipJoint
	{
		OFFSET 0.000000 0.000000 0.000000
		CHANNELS 3 Zrotation Yrotation Xrotation
		JOINT RightUpLeg
		{
			OFFSET -1.305520 -1.794630 0.839290
			CHANNELS 3 Zrotation Yrotation Xrotation
			JOINT RightLeg
			{
				OFFSET -2.542530 -6.985550 0.000000
				CHANNELS 3 Zrotation Yrotation Xrotation
				JOINT RightFoot
				{
					OFFSET -2.568260 -7.056230 0.000000
					CHANNELS 3 Zrotation Yrotation Xrotation
					JOINT RightToeBase
					{
						OFFSET -0.164730 -0.452590 2.363150
						CHANNELS 3 Zrotation Yrotation Xrotation
						End Site
						{
							OFFSET 0.000000 0.000000 0.000000
						}
					}
				}
			}
		}
	}
	JOINT LowerBack
	{
		OFFSET 0.000000 0.000000 0.000000
		CHANNELS 3 Zrotation Yrotation Xrotation
		JOINT Spine
		{
			OFFSET 0.028270 2.035590 -0.193380
			CHANNELS 3 Zrotation Yrotation Xrotation
			JOINT Spine1
			{
				OFFSET 0.056720 2.048850 -0.042750
				CHANNELS 3 Zrotation Yrotation Xrotation
				JOINT Neck
				{
					OFFSET 0.000000 0.000000 0.000000
					CHANNELS 3 Zrotation Yrotation Xrotation
					JOINT Neck1
					{
						OFFSET -0.054170 1.746240 0.172020
						CHANNELS 3 Zrotation Yrotation Xrotation
						JOINT Head
						{
							OFFSET 0.104070 1.761360 -0.123970
							CHANNELS 3 Zrotation Yrotation Xrotation
							End Site
							{
								OFFSET 0.000000 0.000000 0.000000
							}
						}
					}
				}
				JOINT LeftShoulder
				{
					OFFSET 0.000000 0.000000 0.000000
					CHANNELS 3 Zrotation Yrotation Xrotation
					JOINT LeftArm
					{
						OFFSET 3.362410 1.200890 -0.311210
						CHANNELS 3 Zrotation Yrotation Xrotation
						JOINT LeftForeArm
						{
							OFFSET 4.983000 -0.000000 -0.000000
							CHANNELS 3 Zrotation Yrotation Xrotation
							JOINT LeftHand
							{
								OFFSET 3.483560 -0.000000 -0.000000
								CHANNELS 3 Zrotation Yrotation Xrotation
								JOINT LeftFingerBase
								{
									OFFSET 0.000000 0.000000 0.000000
									CHANNELS 3 Zrotation Yrotation Xrotation
									JOINT LeftHandIndex1
									{
										OFFSET 0.715260 -0.000000 -0.000000
										CHANNELS 3 Zrotation Yrotation Xrotation
										End Site
										{
											OFFSET 0.000000 0.000000 0.000000
										}
									}
								}
								JOINT LThumb
								{
									OFFSET 0.000000 0.000000 0.000000
									CHANNELS 3 Zrotation Yrotation Xrotation
									End Site
									{
										OFFSET 0.000000 0.000000 0.000000
									}
								}
							}
						}
					}
				}
				JOINT RightShoulder
				{
					OFFSET 0.000000 0.000000 0.000000
					CHANNELS 3 Zrotation Yrotation Xrotation
					JOINT RightArm
					{
						OFFSET -3.136600 1.374050 -0.404650
						CHANNELS 3 Zrotation Yrotation Xrotation
						JOINT RightForeArm
						{
							OFFSET -5.241900 -0.000000 -0.000000
							CHANNELS 3 Zrotation Yrotation Xrotation
							JOINT RightHand
							{
								OFFSET -3.444170 -0.000000 -0.000000
								CHANNELS 3 Zrotation Yrotation Xrotation
								JOINT RightFingerBase
								{
									OFFSET 0.000000 0.000000 0.000000
									CHANNELS 3 Zrotation Yrotation Xrotation
									JOINT RightHandIndex1
									{
										OFFSET -0.622530 -0.000000 -0.000000
										CHANNELS 3 Zrotation Yrotation Xrotation
										End Site
										{
											OFFSET 0.000000 0.000000 0.000000
										}
									}
								}
								JOINT RThumb
								{
									OFFSET 0.000000 0.000000 0.000000
									CHANNELS 3 Zrotation Yrotation Xrotation
									End Site
									{
										OFFSET 0.000000 0.000000 0.000000
									}
								}
							}
						}
					}
				}
			}
		}
	}
}
MOTION
Frames: 12
Frame Time: 0.008333
-15.713939 17.474998 3.047200 -175.914453 -3.361617 -174.477948 20.537800 3.502114 -2.763507 -40.706157 -30.538196 16.494490 -12.809791 -2.114850 -1.133980 3.754982 -2.556352 -33.670246 4.370700 -12.638000 -38.028000 -24.156352 -3.272690 -3.804270 54.508275 28.218192 22.748325 14.795795 6.624526 -9.084346 -5.494216 -23.459424 -51.340740 -0.576600 -4.862700 13.517300 5.640138 2.118455 8.739416 1.005364 2.598194 -5.244802 -2.119151 0.203317 -14.872294 1.140527 1.707671 -22.329257 0.826320 -0.083414 20.037872 -1.974000 -0.875600 15.470100 8.642629 -7.220811 1.082352 -85.306671 15.938787 28.540584 24.470710 -36.866073 -8.177657 -0.010311 2.853684 -0.434623 30.909927 32.214078 16.163200 -7.125000 0.000000 0.000000 0.363000 62.704900 0.156100 -9.831468 6.738696 1.889760 78.321147 -13.698107 49.935505 -22.720616 36.614483 -6.065495 -0.311073 -3.121170 -1.908299 -27.576195 -22.090457 9.341500 7.125000 0.000000 0.000000 0.916600 -50.739900 -0.129600 
-15.723101 17.465621 3.070483 -175.983616 -3.431813 -174.419326 20.536033 3.466343 -2.749252 -40.824944 -30.746303 16.279214 -12.676135 -2.011646 -1.029148 3.808875 -5.818608 -33.424566 2.976400 -10.656800 -31.130900 -24.107778 -3.258942 -3.801996 54.106278 28.247817 22.584689 14.783276 6.746600 -9.364354 -5.093461 -24.517254 -50.791778 -0.445600 -4.282900 11.873900 5.730502 2.104504 8.895190 0.985423 2.623267 -5.243750 -2.256855 0.199253 -14.962894 1.466384 1.808796 -22.294119 0.514724 0.009692 19.847056 -2.200400 -0.817700 15.345500 8.658429 -7.231215 1.088101 -85.407540 15.882407 28.346432 24.476752 -36.872641 -8.183421 -0.006197 2.855770 -0.252772 30.834052 32.224773 16.124800 -7.125000 0.000000 0.000000 0.270100 62.695900 0.116100 -9.803940 6.720923 1.886574 78.149834 -13.534129 49.982923 -22.858711 36.719594 -6.112980 -0.317281 -3.098604 -2.000300 -27.720154 -21.621047 9.179900 7.125000 0.000000 0.000000 0.698000 -50.273500 -0.090700 
-15.718897 17.461201 3.088376 -176.012640 -3.495132 -174.370334 20.542581 3.449251 -2.748815 -40.803908 -30.778070 16.057239 -12.715422 -1.928160 -0.909912 3.772826 -4.618871 -33.429551 3.459200 -11.403700 -33.653700 -24.092679 -3.251824 -3.803826 54.042308 28.256842 22.363164 14.753605 6.583244 -9.103930 -5.443352 -23.408383 -51.262114 -0.596300 -4.943600 13.747900 5.700425 2.093364 9.007694 0.989716 2.626791 -5.236619 -2.271732 0.205868 -15.021538 1.727055 1.899731 -22.255489 0.302289 0.097666 19.698439 -2.362100 -0.761400 15.250600 8.693761 -7.226300 1.084300 -85.513238 15.633187 28.122869 24.136002 -36.592445 -8.049561 0.013628 2.870674 -0.092951 30.917707 32.382348 16.237200 -7.125000 0.000000 0.000000 0.303900 62.867600 0.131900 -9.808377 6.703337 1.882316 78.214277 -13.172122 49.902601 -22.837976 36.734848 -6.128733 -0.323079 -3.118003 -1.937331 -27.879124 -22.132919 9.475200 7.125000 0.000000 0.000000 0.632300 -50.835000 -0.090900 
-15.701866 17.461417 3.100233 -175.962664 -3.535458 -174.380075 20.521824 3.452448 -2.745807 -40.630106 -30.832946 15.979368 -12.773417 -1.868342 -0.774438 3.734939 -2.648564 -33.535529 4.373600 -12.641600 -38.041400 -24.092157 -3.252484 -3.814000 54.155131 28.220513 22.322506 14.714170 6.511456 -8.999503 -5.885122 -21.979256 -51.891758 -0.838700 -5.841900 16.326400 5.606471 2.094318 9.119498 1.012597 2.636650 -5.212942 -2.157464 0.233901 -15.027408 1.633407 1.889267 -22.272709 0.432064 0.120736 19.682876 -2.265500 -0.744800 15.245100 8.705083 -7.206518 1.077675 -85.476673 15.421164 28.211731 23.713996 -36.232183 -7.879930 0.036114 2.884564 -0.202424 31.232367 32.535098 16.478300 -7.125000 0.000000 0.000000 0.612600 63.091300 0.269000 -9.821974 6.696456 1.879964 78.314272 -12.871902 49.732406 -22.978729 36.917708 -6.208689 -0.280940 -3.161720 -1.602247 -27.523045 -23.428674 9.947100 7.125000 0.000000 0.000000 1.189100 -52.142900 -0.209100 
-15.684620 17.464974 3.111119 -175.859408 -3.495527 -174.403040 20.503693 3.451202 -2.741850 -40.532784 -31.085681 16.131724 -12.766097 -1.869042 -0.738342 3.807190 -2.315858 -33.864730 4.563300 -12.874500 -38.900400 -24.134620 -3.234645 -3.809832 54.327423 28.305738 22.204798 14.747456 6.478712 -8.969886 -5.704290 -22.652140 -51.646005 -0.727800 -5.450900 15.199100 5.546936 2.119690 9.239001 1.029193 2.686069 -5.183616 -2.071877 0.276700 -15.017258 1.577427 1.842311 -22.330697 0.557342 0.061672 19.730528 -2.190300 -0.759400 15.289500 8.705138 -7.191992 1.074686 -85.339581 15.339886 28.363866 23.350428 -35.898931 -7.721971 0.046826 2.890446 -0.169461 31.261065 32.550987 16.495900 -7.125000 0.000000 0.000000 0.632700 63.109100 0.278100 -9.835120 6.698550 1.879650 78.364397 -12.733390 49.633006 -23.042697 36.984280 -6.228849 -0.300065 -3.138924 -1.822675 -27.764548 -22.710730 9.705500 7.125000 0.000000 0.000000 0.827400 -51.424400 -0.130900 
-15.666080 17.469393 3.123407 -175.703156 -3.401452 -174.417754 20.479247 3.456125 -2.742081 -40.350476 -31.280072 16.292314 -12.747638 -1.947459 -0.866539 3.878256 -2.318616 -34.169489 4.521400 -12.823700 -38.712100 -24.205696 -3.210494 -3.798986 54.618287 28.444994 22.128011 14.812469 6.477567 -8.986187 -5.290763 -24.080372 -51.073814 -0.497400 -4.521400 12.548500 5.508680 2.152306 9.362078 1.050538 2.746705 -5.152071 -1.978073 0.323548 -14.997291 1.600732 1.831153 -22.452233 0.634804 0.021020 19.838120 -2.158800 -0.764200 15.393200 8.710707 -7.178910 1.071298 -85.250925 15.271891 28.348274 22.985138 -35.552433 -7.548594 0.022827 2.900305 0.145279 30.536046 32.748599 16.172100 -7.125000 0.000000 0.000000 -0.318800 63.134800 -0.140300 -9.844771 6.698057 1.876438 78.346840 -12.586854 49.638983 -23.114043 37.044368 -6.248532 -0.307455 -3.121113 -2.018075 -27.880693 -22.189740 9.505000 7.125000 0.000000 0.000000 0.628900 -50.893400 -0.091300 
-15.651098 17.474244 3.137851 -175.675639 -3.393195 -174.344470 20.449833 3.451240 -2.737758 -40.165304 -31.401762 16.197390 -12.728803 -1.981299 -0.974846 3.886329 -2.362061 -34.239426 4.427200 -12.708100 -38.285400 -24.191948 -3.200014 -3.793098 54.679104 28.521673 21.930405 14.774385 6.293085 -8.687004 -5.750263 -22.607346 -51.685305 -0.720500 -5.424100 15.122100 5.420576 2.169036 9.421310 1.039661 2.775028 -5.131230 -1.932400 0.351366 -14.987604 1.461504 1.768730 -22.415460 0.801546 -0.030703 19.824527 -2.036100 -0.781400 15.370800 8.714138 -7.165570 1.067095 -85.230394 15.144919 28.243366 22.574149 -35.162855 -7.354658 -0.037442 2.919957 0.533036 29.258864 33.444236 15.761300 -7.125000 0.000000 0.000000 -2.147900 63.542400 -0.966200 -9.858783 6.698583 1.876152 78.300543 -12.465704 49.746019 -23.216225 37.144223 -6.288749 -0.298703 -3.123197 -2.264082 -27.950930 -22.201397 9.535700 7.125000 0.000000 0.000000 0.564400 -50.915500 -0.082300 
-15.639133 17.482005 3.150031 -175.809508 -3.406481 -174.235565 20.447142 3.437179 -2.728522 -40.159807 -31.495914 16.048623 -12.722242 -2.007243 -1.097880 3.863269 -2.395259 -34.212396 4.301400 -12.551000 -37.710100 -24.139190 -3.194139 -3.793846 54.537371 28.557132 21.770678 14.707842 6.127815 -8.408926 -6.274612 -20.742055 -52.406066 -1.042700 -6.493900 18.224400 5.199106 2.177377 9.437284 1.006865 2.772278 -5.122896 -1.923448 0.370627 -14.986816 1.483357 1.751112 -22.393388 0.810633 -0.071785 19.838113 -2.040600 -0.793000 15.377500 8.723597 -7.152133 1.058379 -85.200378 15.006488 28.027713 22.043677 -34.695526 -7.176829 0.049301 2.926860 0.927782 30.195275 33.373934 16.255300 -7.125000 0.000000 0.000000 -1.004000 63.688000 -0.454900 -9.874667 6.705451 1.877389 78.381061 -12.376454 49.727403 -23.263074 37.206348 -6.307446 -0.295443 -3.125342 -2.344855 -27.952745 -22.175316 9.522500 7.125000 0.000000 0.000000 0.558200 -50.884900 -0.080900 
-15.627061 17.488041 3.159517 -175.847757 -3.371683 -174.164847 20.441686 3.429627 -2.718471 -40.143597 -31.645801 16.059443 -12.714905 -2.062742 -1.234382 3.863587 -2.366903 -34.262850 4.247200 -12.482300 -37.460200 -24.122221 -3.185450 -3.793426 54.509314 28.606745 21.775372 14.679827 6.159146 -8.484124 -6.385844 -20.329920 -52.598086 -1.150400 -6.810200 19.154300 5.071756 2.171810 9.449105 0.993912 2.759071 -5.112428 -1.994887 0.375157 -14.967330 2.157732 1.880763 -22.469522 0.210632 -0.097437 19.860376 -2.543600 -0.779900 15.436800 8.762634 -7.154087 1.053975 -85.076971 14.934574 27.865056 21.507297 -34.217192 -6.992703 0.127922 2.929170 1.060828 31.113155 33.069914 16.629200 -7.125000 0.000000 0.000000 0.218400 63.585400 0.098500 -9.858666 6.700115 1.876261 78.555385 -12.320769 49.741943 -23.359108 37.319364 -6.349659 -0.290225 -3.135145 -2.369424 -27.977998 -22.382962 9.628500 7.125000 0.000000 0.000000 0.566300 -51.104600 -0.085200 
-15.615743 17.489873 3.170511 -175.743131 -3.334068 -174.091367 20.417769 3.421583 -2.709141 -39.972447 -31.844324 16.040526 -12.695604 -2.082189 -1.284777 3.857970 -2.259083 -34.253935 4.357500 -12.621500 -37.967500 -24.127976 -3.170290 -3.786500 54.607092 28.690804 21.740528 14.661000 6.197404 -8.595211 -6.463713 -20.092890 -52.771108 -1.203700 -6.960600 19.598600 5.060780 2.151717 9.458497 0.996378 2.730325 -5.101914 -1.902056 0.365454 -14.994122 1.639169 1.900845 -21.942591 0.872018 0.075035 19.743050 -2.021100 -0.709000 15.214000 8.748966 -7.134160 1.050271 -85.067805 14.919037 27.744875 21.019457 -33.765120 -6.815052 0.193152 2.931490 1.045357 31.843880 32.704088 16.859200 -7.125000 0.000000 0.000000 1.224800 63.368500 0.545900 -9.879824 6.718332 1.883365 78.594749 -12.354084 49.892852 -23.532394 37.512132 -6.428888 -0.269693 -3.155522 -2.354647 -27.954341 -23.010757 9.917100 7.125000 0.000000 0.000000 0.688800 -51.763900 -0.114700 
-15.605287 17.489766 3.185278 -175.637849 -3.296891 -173.962612 20.385205 3.399791 -2.701769 -39.746088 -32.081640 15.904182 -12.669129 -2.070273 -1.306323 3.855622 -2.163077 -34.273218 4.462500 -12.751600 -38.445700 -24.147739 -3.142896 -3.768536 54.698429 28.858278 21.511125 14.653033 6.117948 -8.515137 -6.520041 -19.960377 -52.900764 -1.205600 -6.966100 19.614900 4.969793 2.164371 9.460410 1.035619 2.726624 -5.105951 -1.755220 0.385358 -15.045923 1.877129 1.957223 -21.783906 0.735699 0.085244 19.660568 -2.151300 -0.685200 15.129500 8.778222 -7.139277 1.045599 -85.195588 14.896902 27.489202 20.640906 -33.437429 -6.678282 0.210883 2.947719 1.163964 31.840001 32.821621 16.900700 -7.125000 0.000000 0.000000 1.165000 63.475000 0.522100 -9.864402 6.729003 1.889507 78.557338 -12.443576 49.916673 -23.594844 37.544874 -6.443896 -0.262666 -3.147357 -2.192618 -27.806879 -22.943074 9.834800 7.125000 0.000000 0.000000 0.811200 -51.675400 -0.133400 
-15.597742 17.488256 3.202848 -175.541155 -3.231919 -173.829600 20.365315 3.370176 -2.686783 -39.647060 -32.518961 15.912303 -12.637255 -2.088964 -1.389501 3.941648 -2.176603 -34.674958 4.386600 -12.657800 -38.100600 -24.157701 -3.108919 -3.749758 54.741764 29.061926 21.251994 14.642677 6.035989 -8.434541 -6.517331 -19.874965 -52.855889 -1.256200 -7.105300 20.027800 4.972330 2.195664 9.500681 1.017535 2.779767 -5.105570 -1.791002 0.406666 -15.073022 1.975173 1.910329 -21.844075 0.836366 -0.031756 19.711541 -2.120800 -0.705300 15.176500 8.777568 -7.134383 1.036101 -85.250941 14.821233 26.984683 20.342732 -33.156246 -6.575658 0.204630 2.962848 1.493769 31.468114 33.270670 16.897600 -7.125000 0.000000 0.000000 0.535300 63.848000 0.244600 -9.877393 6.748129 1.893903 78.591204 -12.536816 49.891331 -23.625844 37.561725 -6.437639 -0.262323 -3.129190 -2.191165 -27.682737 -22.403792 9.538000 7.125000 0.000000 0.000000 0.832400 -51.087800 -0.124800 
